<svg width="33" height="34" viewBox="0 0 33 34" fill="none" xmlns="http://www.w3.org/2000/svg">
<ellipse cx="16.3527" cy="16.777" rx="16.3527" ry="16.777" fill="#0077B5"/>
<path fill-rule="evenodd" clip-rule="evenodd" d="M12.0803 8.62641C12.0803 9.67086 11.3051 10.5161 10.0929 10.5161C8.92797 10.5161 8.15282 9.67086 8.17681 8.62641C8.15282 7.53121 8.92795 6.71057 10.1162 6.71057C11.3051 6.71057 12.057 7.53121 12.0803 8.62641ZM8.27427 24.1747V12.0089H11.9596V24.1739L8.27427 24.1747Z" fill="white"/>
<path fill-rule="evenodd" clip-rule="evenodd" d="M14.9134 15.8917C14.9134 14.3743 14.8646 13.0806 14.8159 12.0108H18.0169L18.1871 13.6775H18.2598C18.7449 12.9061 19.9571 11.7378 21.9212 11.7378C24.3456 11.7378 26.1642 13.3798 26.1642 16.9608V24.1766H22.4789V17.4346C22.4789 15.8664 21.9459 14.7973 20.6123 14.7973C19.5935 14.7973 18.9878 15.5187 18.7456 16.2148C18.6482 16.464 18.6002 16.8116 18.6002 17.1608V24.1766H14.9149V15.8917H14.9134Z" fill="white"/>
</svg>
