<svg width="34" height="34" viewBox="0 0 34 34" fill="none" xmlns="http://www.w3.org/2000/svg">
<ellipse cx="16.747" cy="16.777" rx="16.3527" ry="16.777" fill="#C13584"/>
<path d="M16.747 8.52429C19.3668 8.52429 19.6771 8.53456 20.7117 8.58299C21.6683 8.62775 22.1878 8.79173 22.5336 8.92959C22.9916 9.11219 23.3184 9.33032 23.6617 9.68255C24.0051 10.0348 24.2177 10.3701 24.3957 10.84C24.5301 11.1947 24.6899 11.7277 24.7335 12.7092C24.7807 13.7706 24.7907 14.089 24.7907 16.7767C24.7907 19.4645 24.7807 19.7829 24.7335 20.8444C24.6899 21.8258 24.5301 22.3588 24.3957 22.7135C24.2177 23.1834 24.0051 23.5187 23.6618 23.8709C23.3184 24.2232 22.9916 24.4413 22.5336 24.6239C22.1878 24.7618 21.6683 24.9258 20.7117 24.9705C19.6772 25.0189 19.367 25.0292 16.747 25.0292C14.1269 25.0292 13.8167 25.0189 12.7822 24.9705C11.8256 24.9258 11.3061 24.7618 10.9603 24.6239C10.5023 24.4413 10.1755 24.2232 9.83217 23.8709C9.48885 23.5187 9.2762 23.1834 9.09821 22.7135C8.96384 22.3588 8.804 21.8258 8.76038 20.8444C8.71317 19.7829 8.70316 19.4645 8.70316 16.7767C8.70316 14.089 8.71317 13.7706 8.76038 12.7092C8.804 11.7277 8.96384 11.1947 9.09821 10.84C9.2762 10.3701 9.48881 10.0348 9.83217 9.68259C10.1755 9.33032 10.5023 9.11219 10.9603 8.92959C11.3061 8.79173 11.8256 8.62775 12.7822 8.58299C13.8168 8.53456 14.1271 8.52429 16.747 8.52429ZM16.747 6.71057C14.0823 6.71057 13.7481 6.72216 12.7016 6.77115C11.6573 6.82002 10.944 6.9902 10.3199 7.23901C9.67474 7.49626 9.12757 7.84046 8.58208 8.40007C8.03662 8.95971 7.70113 9.52108 7.45042 10.183C7.20786 10.8233 7.04198 11.5551 6.99435 12.6265C6.9466 13.7001 6.9353 14.0429 6.9353 16.7767C6.9353 19.5106 6.9466 19.8534 6.99435 20.927C7.04198 21.9985 7.20786 22.7302 7.45042 23.3705C7.70113 24.0324 8.03662 24.5938 8.58208 25.1534C9.12757 25.7131 9.67474 26.0572 10.3199 26.3145C10.944 26.5633 11.6573 26.7335 12.7016 26.7824C13.7481 26.8314 14.0823 26.8429 16.747 26.8429C19.4116 26.8429 19.7458 26.8314 20.7923 26.7824C21.8366 26.7335 22.5499 26.5633 23.1739 26.3145C23.8191 26.0572 24.3663 25.7131 24.9118 25.1534C25.4573 24.5938 25.7928 24.0324 26.0435 23.3705C26.286 22.7302 26.4519 21.9985 26.4995 20.927C26.5473 19.8534 26.5586 19.5106 26.5586 16.7767C26.5586 14.0429 26.5473 13.7001 26.4995 12.6265C26.4519 11.5551 26.286 10.8233 26.0435 10.183C25.7928 9.52108 25.4573 8.95971 24.9118 8.40007C24.3663 7.84046 23.8191 7.49626 23.1739 7.23901C22.5499 6.9902 21.8366 6.82002 20.7923 6.77115C19.7458 6.72216 19.4116 6.71057 16.747 6.71057Z" fill="white"/>
<path d="M16.7516 11.6122C13.9689 11.6122 11.7131 13.9265 11.7131 16.7813C11.7131 19.6361 13.9689 21.9504 16.7516 21.9504C19.5342 21.9504 21.79 19.6361 21.79 16.7813C21.79 13.9265 19.5342 11.6122 16.7516 11.6122ZM16.7516 20.1367C14.9453 20.1367 13.481 18.6344 13.481 16.7813C13.481 14.9282 14.9453 13.4259 16.7516 13.4259C18.5578 13.4259 20.0221 14.9282 20.0221 16.7813C20.0221 18.6344 18.5578 20.1367 16.7516 20.1367Z" fill="white"/>
<path d="M23.1661 11.4055C23.1661 12.0726 22.6389 12.6134 21.9887 12.6134C21.3384 12.6134 20.8113 12.0726 20.8113 11.4055C20.8113 10.7383 21.3384 10.1975 21.9887 10.1975C22.6389 10.1975 23.1661 10.7383 23.1661 11.4055Z" fill="white"/>
</svg>
