<svg width="34" height="34" viewBox="0 0 34 34" fill="none" xmlns="http://www.w3.org/2000/svg">
<ellipse cx="16.9733" cy="16.9754" rx="16.3527" ry="16.777" fill="#FF0000"/>
<path fill-rule="evenodd" clip-rule="evenodd" d="M26.213 10.5819C26.5393 10.9167 26.7744 11.3333 26.895 11.7904C27.5891 14.6567 27.4287 19.1838 26.9085 22.1608C26.7879 22.6178 26.5528 23.0345 26.2265 23.3692C25.9001 23.704 25.494 23.9453 25.0486 24.0689C23.4178 24.5252 16.8542 24.5252 16.8542 24.5252C16.8542 24.5252 10.2907 24.5252 8.65987 24.0689C8.21441 23.9453 7.80829 23.704 7.48197 23.3692C7.15565 23.0345 6.92052 22.6178 6.79997 22.1608C6.10184 19.3068 6.29322 14.777 6.7865 11.8042C6.90704 11.3472 7.14218 10.9305 7.4685 10.5957C7.79482 10.2609 8.20093 10.0197 8.64639 9.89603C10.2772 9.43973 16.8407 9.4259 16.8407 9.4259C16.8407 9.4259 23.4043 9.4259 25.0351 9.8822C25.4805 10.0059 25.8867 10.2471 26.213 10.5819ZM20.1966 16.9756L14.7517 20.2111V13.74L20.1966 16.9756Z" fill="white"/>
</svg>
