<svg width="350" height="30" viewBox="0 0 350 30" fill="none" xmlns="http://www.w3.org/2000/svg">
<path d="M350 3.98701H345.554V0H341.677V3.98701H338.269L337.23 7.8679H341.677V11.8554H345.554V7.8679H348.961L350 3.98701Z" fill="#2AD2C9"/>
<path d="M158.723 9.93977V3.98096H153.857V23.1437C153.857 24.422 153.857 26.0122 154.605 27.2631C155.481 28.7322 157.18 29.4471 159.8 29.4471C161.568 29.4471 163.456 28.9251 164.608 28.1158L164.767 28.0038L163.487 24.713L163.234 24.8732C162.882 25.0924 161.944 25.6075 160.867 25.6075C159.58 25.6075 158.723 25.1541 158.723 22.9491V13.8533H162.549L163.597 9.93977H158.723Z" fill="#244C5A"/>
<path d="M176.507 28.9466L167.879 4.0271H171.062L178.233 25.3776L185.327 4.0271H188.395L179.767 28.9466H176.507Z" fill="#2AD2C9"/>
<path d="M197.017 11.5601C192.914 11.5601 191.342 15.4367 191.226 18.4687C191.457 18.4687 191.687 18.5067 191.994 18.5067C194.601 18.5067 199.97 17.8925 199.97 14.4388C199.97 12.6347 198.743 11.5601 197.017 11.5601ZM202.77 14.0936C202.77 19.7737 195.944 20.6945 192.224 20.6945C191.841 20.6945 191.534 20.6564 191.226 20.6564C191.38 23.8036 192.914 27.104 196.979 27.104C199.548 27.104 201.159 25.8756 201.888 25.3381L203.038 27.2959C202.079 28.102 199.855 29.4837 196.787 29.4837C190.805 29.4837 188.274 25.4152 188.274 19.6965C188.274 14.0164 191.342 9.33374 197.17 9.33374C200.737 9.33374 202.77 11.253 202.77 14.0936Z" fill="#2AD2C9"/>
<path d="M209.515 4.0271V9.87175H214.96V12.4433H209.515V23.804C209.515 26.337 210.512 27.1431 212.314 27.1431C213.618 27.1431 214.576 26.6055 215.229 26.2218L216.111 28.2177C214.998 28.9852 213.311 29.4842 211.777 29.4842C206.677 29.4842 206.524 26.5289 206.524 23.7274V4.0271H209.515Z" fill="#2AD2C9"/>
<path d="M226.078 11.5601C221.974 11.5601 220.403 15.4367 220.288 18.4687C220.518 18.4687 220.748 18.5067 221.054 18.5067C223.662 18.5067 229.031 17.8925 229.031 14.4388C229.031 12.6347 227.803 11.5601 226.078 11.5601ZM231.83 14.0936C231.83 19.7737 225.004 20.6945 221.284 20.6945C220.901 20.6945 220.594 20.6564 220.288 20.6564C220.441 23.8036 221.974 27.104 226.039 27.104C228.609 27.104 230.219 25.8756 230.948 25.3381L232.099 27.2959C231.139 28.102 228.916 29.4837 225.848 29.4837C219.866 29.4837 217.334 25.4152 217.334 19.6965C217.334 14.0164 220.403 9.33374 226.231 9.33374C229.798 9.33374 231.83 11.253 231.83 14.0936Z" fill="#2AD2C9"/>
<path d="M239.038 28.9461H236.085V12.4814L235.854 9.87131H238.424L238.769 12.6347C239.689 10.4855 241.377 9.33374 243.563 9.33374C244.751 9.33374 245.864 9.60279 246.591 10.0632L245.671 12.7114C245.02 12.3662 244.137 11.9825 243.179 11.9825C240.725 11.9825 239.152 14.2083 239.038 16.7798V28.9461Z" fill="#2AD2C9"/>
<path d="M249.62 28.9463V9.87151H252.611V28.9463H249.62ZM251.115 2.42542C252.228 2.42542 253.11 3.30814 253.11 4.42133C253.11 5.6117 252.228 6.4553 251.077 6.4553C249.927 6.4553 249.122 5.6117 249.122 4.42133C249.122 3.30814 249.965 2.42542 251.115 2.42542Z" fill="#2AD2C9"/>
<path d="M258.477 28.9461V12.75L258.286 9.87131H260.855L261.2 12.6347C262.657 10.4855 264.881 9.33374 267.374 9.33374C271.323 9.33374 273.471 11.5601 273.471 15.9357V28.9461H270.48V16.8565C270.48 14.0164 269.867 11.7139 266.645 11.7139C263.693 11.7139 261.468 14.1317 261.468 16.4347V28.9461H258.477Z" fill="#2AD2C9"/>
<path d="M290.762 12.3276C290.072 12.0205 288.538 11.6754 286.927 11.6754C282.325 11.6754 280.754 15.4367 280.754 20.3493C280.754 23.6884 281.75 27.2579 285.777 27.2579C288.998 27.2579 290.762 25.0315 290.762 22.8823V12.3276ZM293.715 25.6071L294.022 28.9461H291.338L291.108 26.6817L290.992 26.6437C290.033 28.0254 288.385 29.4837 285.394 29.4837C280.063 29.4837 277.8 25.799 277.8 20.2341C277.8 13.4408 281.06 9.33374 287.426 9.33374C288.615 9.33374 291.261 9.64085 293.715 10.5622V25.6071Z" fill="#2AD2C9"/>
<path d="M302.147 28.9461H299.194V12.4814L298.964 9.87131H301.534L301.879 12.6347C302.799 10.4855 304.486 9.33374 306.672 9.33374C307.861 9.33374 308.973 9.60279 309.702 10.0632L308.781 12.7114C308.129 12.3662 307.247 11.9825 306.288 11.9825C303.834 11.9825 302.262 14.2083 302.147 16.7798V28.9461Z" fill="#2AD2C9"/>
<path d="M312.73 28.9463V9.87151H315.721V28.9463H312.73ZM314.225 2.42542C315.337 2.42542 316.219 3.30814 316.219 4.42133C316.219 5.6117 315.337 6.4553 314.187 6.4553C313.036 6.4553 312.231 5.6117 312.231 4.42133C312.231 3.30814 313.074 2.42542 314.225 2.42542Z" fill="#2AD2C9"/>
<path d="M321.05 25.4919C322.162 26.2599 324.042 27.1807 326.265 27.1807C328.413 27.1807 330.062 26.1827 330.062 23.9188C330.062 21.6925 328.336 21.0021 326.112 20.4646C323.044 19.7351 320.322 18.7758 320.322 14.9758C320.322 11.1378 323.389 9.33374 326.726 9.33374C329.448 9.33374 331.711 10.5241 333.091 11.9053L331.366 13.6707C330.1 12.4814 328.567 11.5987 326.611 11.5987C324.962 11.5987 323.121 12.4428 323.121 14.5535C323.121 16.8184 325 17.3555 327.186 18.0083C329.947 18.8524 332.976 19.7737 332.976 23.6498C332.976 27.4112 330.215 29.4837 326.303 29.4837C323.198 29.4837 320.705 28.3319 319.899 27.6416L321.05 25.4919Z" fill="#2AD2C9"/>
<path d="M7.44829 14.0211H4.97534V7.85756H7.70694C10.5055 7.85756 11.6477 8.72313 11.6477 10.8477C11.6477 12.8934 10.1569 14.0211 7.44829 14.0211ZM4.97534 17.7878H8.36721C11.17 17.7878 12.7144 19.0452 12.7144 21.3295C12.7144 23.7874 11.2338 24.9826 8.18407 24.9826H4.97534V17.7878ZM13.7051 15.4457C15.6656 14.2526 16.6985 12.5076 16.6985 10.3696C16.6985 6.13016 13.9434 3.98096 8.51394 3.98096H0V28.9326H8.29438C14.5196 28.9326 17.9484 26.2453 17.9484 21.3664C17.9484 18.4283 16.4479 16.3461 13.7051 15.4457Z" fill="#244C5A"/>
<path d="M28.7643 25.7902C26.3583 25.7902 25.1893 23.9224 25.1893 20.0801C25.1893 16.8879 25.9556 13.0804 29.6098 13.0804C30.6616 13.0804 31.5917 13.2691 32.1192 13.4754V22.8392C32.1192 24.2697 30.9427 25.7902 28.7643 25.7902ZM36.9489 10.7495L36.7888 10.6895C34.0497 9.66206 31.3336 9.38818 30.1603 9.38818C23.933 9.38818 20.3601 13.3387 20.3601 20.2269C20.3601 26.2356 22.9353 29.4106 27.8084 29.4106C29.8583 29.4106 31.6512 28.6013 32.7998 27.1724L33.0322 28.9325H37.305L36.9489 25.1427V10.7495Z" fill="#244C5A"/>
<path d="M50.3353 24.9654C49.4395 25.3486 48.7133 25.5341 48.1162 25.5341C46.9622 25.5341 46.3769 25.0887 46.3769 22.6544V3.98096H41.5114V23.5735C41.5114 26.5637 41.9371 29.4841 47.0126 29.4841C48.5998 29.4841 50.451 29.0157 51.5183 28.343L51.6816 28.2407L50.5817 24.8593L50.3353 24.9654Z" fill="#244C5A"/>
<path d="M73.4633 9.38818C71.1982 9.38818 69.272 10.3658 68.1142 12.0873C67.0668 10.2961 65.3467 9.38818 62.9911 9.38818C60.8603 9.38818 59.0824 10.2441 57.8133 11.8734L57.5049 9.93969H53.3826L53.7408 13.387V28.9325H58.6069V16.77C58.6069 15.0292 59.6586 13.2653 61.6673 13.2653C63.7884 13.2653 64.2142 14.7055 64.2142 17.0267V28.9325H69.0797V16.6215C69.0797 14.9949 70.1523 13.2653 72.1407 13.2653C74.2607 13.2653 74.6864 14.7055 74.6864 17.0267V28.9325H79.5541V16.1434C79.5541 11.7866 77.3907 9.38818 73.4633 9.38818Z" fill="#244C5A"/>
<path d="M91.3511 13.007C92.5586 13.007 93.3078 13.7434 93.3078 14.9311C93.3078 15.5169 93.0808 16.0373 92.632 16.4789C91.3431 17.7454 88.6297 18.0906 87.1635 18.1061C87.3445 15.5265 88.6848 13.007 91.3511 13.007ZM96.1685 24.073C95.2147 24.7477 93.7126 25.6439 91.6804 25.6439C88.7716 25.6439 87.5292 23.5118 87.3193 21.4259C96.6788 21.241 97.6978 16.703 97.6978 14.7456C97.6978 11.3911 95.4209 9.38818 91.6071 9.38818C85.278 9.38818 82.3943 14.796 82.3943 19.8217C82.3943 26.0523 85.5222 29.484 91.2028 29.484C94.6562 29.484 97.1602 27.9533 97.8328 27.3632L97.9731 27.2421L96.4094 23.9015L96.1685 24.073Z" fill="#244C5A"/>
<path d="M107.585 13.0804C108.963 13.0804 110.456 13.7472 111.906 15.0077L112.1 15.1739L114.496 12.2282L114.339 12.0701C112.635 10.3658 110.148 9.38818 107.513 9.38818C102.723 9.38818 100.54 12.5482 100.54 15.4821C100.54 19.5077 103.797 20.4467 106.413 21.2002C108.139 21.7153 109.36 22.1912 109.36 23.6469C109.36 25.5474 107.578 25.7537 106.814 25.7537C105.038 25.7537 102.944 24.8244 101.692 24.0285L101.443 23.8704L99.9717 27.4426L100.122 27.5562C101.127 28.3312 103.788 29.484 106.999 29.484C111.435 29.484 114.189 27.1344 114.189 23.3537C114.189 19.2531 110.818 18.1929 108.354 17.4158C106.429 16.8396 105.259 16.3884 105.259 14.9675C105.259 13.5735 106.513 13.0804 107.585 13.0804Z" fill="#244C5A"/>
<path d="M131.897 9.93982H127.058L127.136 10.2464C127.781 12.8335 128.378 15.6312 128.378 18.5725C128.378 20.6665 127.668 25.4007 123.907 25.4007C122.109 25.4007 122.33 24.0442 122.33 21.7711V9.93982H117.428V22.6544C117.428 27.2883 118.498 29.4472 123.053 29.4472C128.815 29.4472 133.171 25.376 133.171 18.2778C133.171 15.8102 132.726 12.8372 131.947 10.1188L131.897 9.93982Z" fill="#244C5A"/>
<path d="M144.621 13.007C145.829 13.007 146.58 13.7434 146.58 14.9311C146.58 15.5169 146.353 16.0373 145.905 16.4789C144.615 17.7454 141.902 18.0906 140.436 18.1061C140.617 15.5265 141.957 13.007 144.621 13.007ZM149.441 24.073C148.487 24.7477 146.985 25.6439 144.953 25.6439C142.042 25.6439 140.8 23.5118 140.59 21.4259C149.949 21.241 150.968 16.703 150.968 14.7456C150.968 11.3911 148.692 9.38818 144.879 9.38818C138.55 9.38818 135.667 14.796 135.667 19.8217C135.667 26.0523 138.794 29.484 144.475 29.484C147.923 29.484 150.431 27.9533 151.105 27.3632L151.245 27.2421L149.682 23.9015L149.441 24.073Z" fill="#244C5A"/>
</svg>
